<svg width="210" height="175" viewBox="0 0 210 175" fill="none" xmlns="http://www.w3.org/2000/svg">
<path d="M192.209 113.295C190.218 103.056 190.328 97.9653 186.816 93.9753C183.776 91.2873 180.861 90.8757 176.501 89.0277L175.518 87.4569L175.182 81.2745C178.929 78.6957 179.34 73.3533 179.34 70.4385C179.466 64.8273 174.342 61.6605 170.84 61.8201C165.102 61.6353 164.321 63.3489 161.877 67.3473L161.079 67.7169C156.854 67.1373 154.409 67.9773 154.308 69.4137C154.073 71.7993 157.458 71.5137 161.264 72.6561L161.742 73.3953C160.382 78.4941 160.205 83.1393 163.884 85.8693L165.514 86.5245L165.783 88.7673L165.17 89.8677C160.818 91.0941 156.828 92.7573 153.922 98.7549C151.94 103.996 150.923 110.414 150.276 113.295C161.658 117.663 176.3 118.075 192.209 113.295Z" fill="#3F2B04" stroke="#FBEA29" stroke-width="1.848" stroke-miterlimit="10" stroke-linecap="round" stroke-linejoin="round"/>
<path d="M161.633 68.171C165.589 68.2886 172.217 71.0942 178.928 73.7402L179.18 70.4474C179.298 64.8362 174.174 61.6694 170.671 61.829C165.388 61.661 163.943 64.0886 161.633 68.171Z" fill="#3F2B04" stroke="#FBE70B" stroke-width="1.848" stroke-miterlimit="10" stroke-linecap="round" stroke-linejoin="round"/>
<path d="M161.213 72.3203C163.204 72.8999 168.512 73.5131 172.956 73.6307L174.149 76.8479L175.669 77.0915L176.82 75.4535L177.971 75.9659C177.274 78.0323 176.66 78.6623 175.098 80.2247L174.972 87.8771C173.704 91.1279 168.504 94.4207 165.606 89.7839L164.934 89.0363V87.1379" stroke="#FBE70B" stroke-width="1.848" stroke-miterlimit="10" stroke-linecap="round" stroke-linejoin="round"/>
<path d="M161.549 72.8999C160.398 76.3271 159.373 84.5339 164.077 86.0039C166.656 86.7011 168.286 86.3903 170.041 85.1219" stroke="#FBE70B" stroke-width="1.848" stroke-miterlimit="10" stroke-linecap="round" stroke-linejoin="round"/>
<path d="M175.241 103.216H180.239" stroke="#CCB809" stroke-width="1.848" stroke-miterlimit="10" stroke-linecap="round" stroke-linejoin="round"/>
<path d="M23.7302 32.8608L20.4206 39.4044L13.0874 39.9756L18.0518 45.2172L16.3466 51.9624L23.2766 48.6444L29.4506 51.9624L29.963 51.702L29.1062 45.2172L33.9446 40.2528L26.729 39.1524L23.7302 32.8608Z" fill="#FBE70B" stroke="#FBE70B" stroke-width="1.008" stroke-miterlimit="10" stroke-linecap="round" stroke-linejoin="round"/>
<path d="M110.517 50.8073V35.4801C110.517 35.1544 110.625 34.8378 110.824 34.5802C111.023 34.3225 111.303 34.1384 111.618 34.0567C111.933 33.975 112.267 34.0003 112.566 34.1287C112.866 34.2571 113.114 34.4813 113.272 34.7661L121.762 50.0485C121.92 50.3333 122.168 50.5575 122.467 50.6859C122.767 50.8143 123.1 50.8397 123.416 50.758C123.731 50.6762 124.01 50.4921 124.209 50.2345C124.409 49.9768 124.517 49.6603 124.517 49.3345V34.0073M107.717 39.6073H127.317M107.717 45.2073H127.317" stroke="#FBE70B" stroke-width="2.8" stroke-linecap="round" stroke-linejoin="round"/>
<path d="M74.1806 45.2006C80.6486 45.2006 84.5966 39.4634 84.2606 34.415C83.765 28.3082 78.9434 24.293 73.8446 24.3602C67.3766 24.4526 63.6134 30.0386 63.4958 35.3978C63.3782 40.9502 68.1914 45.2006 74.1806 45.2006Z" fill="#FDF382" stroke="#FBE70B" stroke-width="1.848" stroke-miterlimit="10" stroke-linecap="round" stroke-linejoin="round"/>
<path d="M74.4238 29.8281V35.9517L77.641 38.9169" stroke="#3F2B04" stroke-width="1.848" stroke-miterlimit="10" stroke-linecap="round" stroke-linejoin="round"/>
<path d="M17.6401 178.648C18.2197 161.184 20.4373 147.45 25.8973 128.844C31.5001 112.363 39.6565 103.283 57.4897 101.88L57.9853 101.561L58.3549 93.984C51.4333 85.5252 47.6365 78.7548 48.7873 73.3032C49.4845 70.632 50.8453 69.75 51.8449 69.2124C52.2733 65.172 54.6589 62.1228 61.8745 61.2156C64.1173 60.972 66.8137 58.7544 69.1993 57.738C73.7773 56.226 77.3137 57.528 79.3045 61.2156C80.8249 64.29 79.9261 67.8264 77.5405 70.0608C78.8173 75.0336 80.3377 81.4176 79.8421 86.7768C79.0357 93.102 76.9273 96.0672 72.2233 96.0672L72.4333 101.628C78.6493 102.317 85.1677 105.156 89.5273 110.582C95.1721 117.143 102.169 129.642 104.631 131.356C105.613 131.112 121.733 107.794 122.926 106.332L135.643 115.74C134.577 121.217 120.733 148.92 111.67 155.489C103.186 160.176 95.4241 155.119 89.5861 147.912L90.6613 178.648H17.6401Z" fill="#3F2B04" stroke="#FBE70B" stroke-width="1.848" stroke-miterlimit="10" stroke-linecap="round" stroke-linejoin="round"/>
<path d="M87.6289 130.18L89.6197 178.622" stroke="#FBE70B" stroke-width="1.848" stroke-miterlimit="10" stroke-linecap="round" stroke-linejoin="round"/>
<path d="M37.271 178.648C38.4218 162.419 40.0934 154.968 44.7554 136.908" stroke="#FBE70B" stroke-width="1.848" stroke-miterlimit="10" stroke-linecap="round" stroke-linejoin="round"/>
<path d="M57.9854 102.124C60.4466 106.996 63.5377 108.566 67.1413 108.684C70.7365 108.608 72.0973 106.592 71.9797 102.552" stroke="#FBE70B" stroke-width="1.848" stroke-miterlimit="10" stroke-linecap="round" stroke-linejoin="round"/>
<path d="M77.7589 99.7081C80.7325 101.27 86.9485 102.673 89.4097 96.8269C91.6525 90.8629 89.8885 84.4201 88.2169 75.6841C84.8821 77.6665 80.8165 78.1201 75.6421 78.8593L75.1465 79.4893L75.0289 85.8145C73.6681 84.1009 70.4929 84.3445 69.7453 86.2849C68.6365 89.7373 70.3837 92.2405 72.4081 93.1225L69.2329 99.3301" fill="#3F2B04"/>
<path d="M66.5198 94.3956C69.4934 95.958 75.7094 97.3608 78.1706 91.5144C80.4134 85.5504 78.6494 79.1076 76.9778 70.3716C73.643 72.354 69.5774 72.8076 64.403 73.5468L63.9074 74.1768L64.0334 80.7456C62.429 78.7884 59.8334 78.906 59.0018 80.7456C57.6074 84.1308 59.6486 86.5248 61.169 87.558L58.271 93.4044" stroke="#FBE70B" stroke-width="1.68" stroke-miterlimit="10" stroke-linecap="round" stroke-linejoin="round"/>
<path d="M129.965 93.6395C132.123 91.1363 138.087 81.6023 140.675 81.8543C144.539 80.3591 143.346 84.6431 140.96 88.0535C139.725 90.0779 138.247 92.1863 137.751 93.0851C138.953 92.8751 141.195 92.4719 142.262 94.2275C143.203 95.7899 142.623 96.7391 142.38 97.1927C143.531 96.8231 145.202 97.7555 145.328 99.5111C145.58 101.981 142.884 104.845 140.775 107.197L139.062 109.179L135.383 112.59L130.805 113.657L122.959 106.567L124.799 96.3275C125.219 94.8743 126.277 93.2111 129.965 93.6395Z" fill="#3F2B04" stroke="#FBE70B" stroke-width="1.848" stroke-miterlimit="10" stroke-linecap="round" stroke-linejoin="round"/>
<path d="M132.401 97.5877C134.518 98.6545 137.298 97.4701 138.491 94.5805C139.306 92.5981 137.785 91.3885 135.173 92.6569" stroke="#FBE70B" stroke-width="1.68" stroke-miterlimit="10" stroke-linecap="round" stroke-linejoin="round"/>
<path d="M137.524 102.964C139.641 102.384 141.8 99.6204 142.615 97.2012" stroke="#FBE70B" stroke-width="1.68" stroke-miterlimit="10" stroke-linecap="round" stroke-linejoin="round"/>
<path d="M132.125 98.8477C131.504 100.561 131.563 102.376 131.563 103.652" stroke="#FBE70B" stroke-width="1.68" stroke-miterlimit="10" stroke-linecap="round" stroke-linejoin="round"/>
</svg>
