<svg width="1440" height="354" viewBox="0 0 1440 354" fill="none" xmlns="http://www.w3.org/2000/svg">
<path d="M17.5 63.3999C-123 -14.8533 -234 1.39997 -234 1.39997V353.9H527C527 353.9 523.5 313.269 429.5 282.9C376 265.615 315.5 266.4 315.5 266.4C315.5 266.4 305 222.9 259.5 198.4C201.999 167.438 158 191.4 158 191.4C158 191.4 96.5 107.4 17.5 63.3999Z" fill="white"/>
<path d="M616 311.4C548.28 311.4 527 353.9 527 353.9H685C685 353.9 657.5 311.4 616 311.4Z" fill="white"/>
<path d="M884 286.9C696.5 302.4 685 353.9 685 353.9H1672V71.4C1672 71.4 1593 88.4363 1547 110.9C1492.74 137.395 1422 201.9 1422 201.9C1422 201.9 1340 177.4 1275.5 195.4C1232.85 207.302 1208.94 216.562 1171 239.4C1122 268.9 1080 333.9 1080 333.9C1080 333.9 977 279.212 884 286.9Z" fill="white"/>
</svg>
