<svg width="210" height="190" viewBox="0 0 210 190" fill="none" xmlns="http://www.w3.org/2000/svg">
<path d="M105.084 176.4C85.8143 176.4 70.5179 170.47 58.6655 159.508" stroke="#C5A402" stroke-width="1.68" stroke-linecap="round" stroke-linejoin="round" stroke-dasharray="5.89 5.89"/>
<path d="M147.504 161.784C135.912 171.696 122.33 176.392 105.588 176.392" stroke="#C5A402" stroke-width="1.68" stroke-linecap="round" stroke-linejoin="round" stroke-dasharray="5.89 5.89"/>
<path d="M40.8911 83.1264C43.5707 76.1124 47.5775 69.132 50.4587 65.3604" stroke="#C5A402" stroke-width="1.68" stroke-linecap="round" stroke-linejoin="round" stroke-dasharray="5.89 5.89"/>
<path d="M164.388 74.5164L161.851 70.3164" stroke="#C5A402" stroke-width="1.68" stroke-linecap="round" stroke-linejoin="round"/>
<path d="M169.176 85.9319L167.647 81.3623" stroke="#C5A402" stroke-width="1.68" stroke-linecap="round" stroke-linejoin="round"/>
<path d="M132.384 42.6718C123.707 38.6902 115.466 37.3882 103.866 37.3882C95.3651 37.3882 87.5111 38.791 81.2783 41.5546" stroke="#C5A402" stroke-width="1.68" stroke-linecap="round" stroke-linejoin="round" stroke-dasharray="5.89 5.89"/>
<path d="M70.4844 32.7266H39.8076C36.9012 32.7266 35.8848 35.9606 35.8848 37.3886V55.3646C35.8848 57.5234 37.7244 58.9346 39.3624 58.9346H59.3124L69.3924 66.9398V59.5646C72.4332 59.5646 74.4156 57.7334 74.4156 55.0706V37.7246C74.4156 35.2634 73.2984 32.7266 70.4844 32.7266Z" fill="#FDF48C" stroke="#FBE70B" stroke-width="1.68" stroke-linecap="round" stroke-linejoin="round"/>
<path d="M168.84 40.9248H142.909C140.146 40.9248 139.516 43.5456 139.516 44.7972V59.1528C139.516 61.4796 140.843 62.7732 143.758 62.7732V70.0224L152.41 62.7732H168.781C171.36 62.7732 172.175 60.6228 172.175 59.1528V44.9736C172.175 42.4284 170.738 40.9248 168.84 40.9248Z" fill="#FCEC40" stroke="#FBE70B" stroke-width="1.68" stroke-linecap="round" stroke-linejoin="round"/>
<path d="M78.9009 92.3162L104.689 79.5229L129.788 92.3162V124.883L104.445 137.928L78.9009 124.883V92.3162Z" fill="#FDF482" stroke="#FBE70B" stroke-width="1.68" stroke-linecap="round" stroke-linejoin="round"/>
<path d="M79.2793 92.3159L104.488 104.496L129.705 92.3159" stroke="#FBE70B" stroke-width="1.68" stroke-linecap="round" stroke-linejoin="round"/>
<path d="M104.412 104.664V137.466" stroke="#FBE70B" stroke-width="2.1" stroke-linecap="round" stroke-linejoin="round"/>
<path d="M92.9883 85.9316L117.096 98.9768" stroke="#FBE70B" stroke-width="2.1" stroke-linecap="round" stroke-linejoin="round"/>
<path d="M117.096 99.0361V103.236" stroke="#FBE70B" stroke-width="2.1" stroke-linecap="round" stroke-linejoin="round"/>
<path d="M113.4 111.468L120.044 107.436C121.909 106.302 124.169 107.73 123.354 111.225C122.808 113.669 121.666 114.87 119.414 116.155L114.761 118.785" stroke="#3F2B04" stroke-width="2.94" stroke-linecap="round" stroke-linejoin="round"/>
<path d="M113.82 111.216V124.009" stroke="#3F2B04" stroke-width="2.94" stroke-linecap="round" stroke-linejoin="round"/>
<path d="M84 116.508L90.3168 119.91" stroke="#FBE70B" stroke-width="2.1" stroke-linecap="round" stroke-linejoin="round"/>
<path d="M84 121.548L86.4276 122.75" stroke="#FBE70B" stroke-width="2.1" stroke-linecap="round" stroke-linejoin="round"/>
<mask id="path-18-inside-1_678_6595" fill="white">
<path d="M203.532 176.4C202.508 161.053 199.895 146.992 195.72 140.146C200.878 138.499 204.566 133.081 203.986 127.47C203.356 121.052 196.09 116.584 195.796 108.167C195.586 101.867 190.538 91.4256 177.442 91.1484C171.218 91.014 169 94.0632 166.539 94.4748C162.112 94.3404 159.651 102.278 160.071 104.748C160.491 107.209 162.322 109.183 163.07 109.906C162.524 113.131 159.962 116.113 159.928 116.911C159.886 118.003 162.44 118.28 162.549 118.961C162.944 121.792 161.961 126.336 166.514 127.478C170.084 128.386 174.158 126.059 174.863 125.546C175.283 127.806 173.334 129.62 172.058 133.4C171.352 135.719 169.512 137.819 168.32 139.633C165.371 144.077 157.828 154.358 156.66 158.332C155.022 164.178 157.064 167.143 157.92 170.041C158.542 172.292 157.761 174.779 157.442 176.4"/>
</mask>
<path d="M203.532 176.4C202.508 161.053 199.895 146.992 195.72 140.146C200.878 138.499 204.566 133.081 203.986 127.47C203.356 121.052 196.09 116.584 195.796 108.167C195.586 101.867 190.538 91.4256 177.442 91.1484C171.218 91.014 169 94.0632 166.539 94.4748C162.112 94.3404 159.651 102.278 160.071 104.748C160.491 107.209 162.322 109.183 163.07 109.906C162.524 113.131 159.962 116.113 159.928 116.911C159.886 118.003 162.44 118.28 162.549 118.961C162.944 121.792 161.961 126.336 166.514 127.478C170.084 128.386 174.158 126.059 174.863 125.546C175.283 127.806 173.334 129.62 172.058 133.4C171.352 135.719 169.512 137.819 168.32 139.633C165.371 144.077 157.828 154.358 156.66 158.332C155.022 164.178 157.064 167.143 157.92 170.041C158.542 172.292 157.761 174.779 157.442 176.4" fill="#785208"/>
<path d="M195.72 140.146L195.264 138.717L193.446 139.297L194.44 140.927L195.72 140.146ZM203.986 127.47L202.493 127.617L202.494 127.624L203.986 127.47ZM195.796 108.167L194.297 108.217L194.297 108.219L195.796 108.167ZM177.442 91.1484L177.41 92.648L177.41 92.648L177.442 91.1484ZM166.539 94.4748L166.493 95.9741L166.641 95.9785L166.786 95.9542L166.539 94.4748ZM160.071 104.748L158.592 104.999L158.592 105L160.071 104.748ZM163.07 109.906L164.549 110.156L164.68 109.376L164.112 108.827L163.07 109.906ZM159.928 116.911L158.429 116.848L158.429 116.853L159.928 116.911ZM162.549 118.961L164.034 118.754L164.032 118.738L164.03 118.723L162.549 118.961ZM166.514 127.478L166.883 126.025L166.879 126.023L166.514 127.478ZM174.863 125.546L176.338 125.272L175.904 122.937L173.982 124.333L174.863 125.546ZM172.058 133.4L170.636 132.92L170.629 132.942L170.623 132.964L172.058 133.4ZM168.32 139.633L169.569 140.462L169.573 140.457L168.32 139.633ZM156.66 158.332L155.221 157.909L155.219 157.918L155.216 157.927L156.66 158.332ZM157.92 170.041L159.366 169.642L159.363 169.629L159.359 169.616L157.92 170.041ZM203.532 176.4L205.029 176.3C204.513 168.578 203.597 161.155 202.276 154.781C200.963 148.44 199.224 143.01 197.001 139.365L195.72 140.146L194.44 140.927C196.391 144.127 198.046 149.151 199.339 155.389C200.624 161.594 201.527 168.875 202.036 176.5L203.532 176.4ZM195.72 140.146L196.177 141.575C202 139.716 206.132 133.645 205.478 127.316L203.986 127.47L202.494 127.624C202.999 132.518 199.756 137.283 195.264 138.717L195.72 140.146ZM203.986 127.47L205.479 127.323C205.119 123.662 202.862 120.579 201.023 117.75C199.105 114.801 197.427 111.88 197.295 108.114L195.796 108.167L194.297 108.219C194.459 112.87 196.561 116.392 198.507 119.386C200.532 122.5 202.223 124.861 202.493 127.617L203.986 127.47ZM195.796 108.167L197.295 108.117C197.179 104.644 195.749 100.129 192.593 96.426C189.398 92.6772 184.462 89.7966 177.474 89.6487L177.442 91.1484L177.41 92.648C183.517 92.7773 187.654 95.2559 190.309 98.372C193.004 101.534 194.203 105.389 194.297 108.217L195.796 108.167ZM177.442 91.1484L177.474 89.6487C174.078 89.5754 171.732 90.379 169.924 91.2576C169.092 91.6615 168.257 92.1467 167.709 92.4341C167.086 92.761 166.66 92.9336 166.291 92.9953L166.539 94.4748L166.786 95.9542C167.648 95.8101 168.423 95.4472 169.102 95.0908C169.857 94.6949 170.426 94.349 171.235 93.956C172.707 93.2407 174.582 92.5869 177.41 92.648L177.442 91.1484ZM166.539 94.4748L166.584 92.9754C164.987 92.927 163.643 93.6179 162.597 94.5622C161.562 95.4957 160.75 96.7312 160.14 97.9745C159.526 99.2271 159.082 100.561 158.817 101.758C158.562 102.914 158.439 104.097 158.592 104.999L160.071 104.748L161.55 104.496C161.493 104.164 161.52 103.429 161.746 102.406C161.963 101.425 162.332 100.319 162.834 99.2952C163.341 98.2621 163.948 97.3839 164.606 96.7897C165.253 96.2063 165.877 95.9553 166.493 95.9741L166.539 94.4748ZM160.071 104.748L158.592 105C159.098 107.965 161.243 110.226 162.027 110.984L163.07 109.906L164.112 108.827C163.401 108.14 161.883 106.453 161.549 104.496L160.071 104.748ZM163.07 109.906L161.591 109.655C161.364 110.996 160.699 112.357 160.004 113.575C159.833 113.874 159.666 114.156 159.505 114.426C159.347 114.69 159.19 114.952 159.055 115.188C158.922 115.42 158.788 115.664 158.684 115.895C158.598 116.083 158.446 116.441 158.429 116.848L159.928 116.911L161.427 116.974C161.418 117.182 161.353 117.272 161.417 117.132C161.461 117.034 161.537 116.89 161.658 116.679C161.776 116.473 161.916 116.239 162.081 115.963C162.243 115.692 162.423 115.388 162.609 115.063C163.34 113.783 164.229 112.041 164.549 110.156L163.07 109.906ZM159.928 116.911L158.429 116.853C158.393 117.802 158.951 118.431 159.361 118.763C159.762 119.087 160.24 119.312 160.566 119.458C160.974 119.642 161.182 119.722 161.368 119.824C161.449 119.868 161.433 119.868 161.38 119.819C161.33 119.772 161.127 119.569 161.068 119.198L162.549 118.961L164.03 118.723C163.943 118.182 163.637 117.821 163.426 117.625C163.213 117.426 162.979 117.285 162.806 117.19C162.485 117.015 162.036 116.83 161.797 116.722C161.476 116.578 161.317 116.486 161.248 116.43C161.187 116.381 161.442 116.566 161.427 116.969L159.928 116.911ZM162.549 118.961L161.063 119.168C161.149 119.78 161.159 120.481 161.196 121.387C161.231 122.237 161.29 123.225 161.51 124.187C161.732 125.159 162.133 126.178 162.902 127.054C163.683 127.943 164.756 128.584 166.148 128.933L166.514 127.478L166.879 126.023C165.995 125.802 165.483 125.446 165.156 125.074C164.816 124.687 164.585 124.179 164.434 123.519C164.281 122.847 164.227 122.097 164.193 121.264C164.161 120.486 164.146 119.556 164.034 118.754L162.549 118.961ZM166.514 127.478L166.144 128.932C168.335 129.489 170.572 129.038 172.249 128.464C173.935 127.886 175.264 127.109 175.745 126.76L174.863 125.546L173.982 124.333C173.757 124.496 172.696 125.139 171.276 125.626C169.847 126.116 168.262 126.375 166.883 126.025L166.514 127.478ZM174.863 125.546L173.388 125.82C173.502 126.429 173.334 127.055 172.751 128.241C172.202 129.358 171.317 130.907 170.636 132.92L172.058 133.4L173.479 133.88C174.075 132.114 174.803 130.866 175.443 129.565C176.048 128.334 176.645 126.923 176.338 125.272L174.863 125.546ZM172.058 133.4L170.623 132.964C170.334 133.912 169.794 134.872 169.125 135.871C168.793 136.367 168.444 136.852 168.09 137.344C167.742 137.827 167.385 138.325 167.066 138.809L168.32 139.633L169.573 140.457C169.851 140.034 170.171 139.589 170.525 139.096C170.874 138.612 171.253 138.086 171.618 137.54C172.343 136.457 173.076 135.207 173.493 133.837L172.058 133.4ZM168.32 139.633L167.07 138.804C166.343 139.9 165.329 141.359 164.184 143.018C163.043 144.67 161.781 146.506 160.572 148.33C159.364 150.152 158.2 151.978 157.26 153.61C156.339 155.209 155.568 156.73 155.221 157.909L156.66 158.332L158.1 158.754C158.337 157.946 158.947 156.692 159.86 155.108C160.755 153.555 161.88 151.788 163.073 149.987C164.264 148.189 165.513 146.373 166.652 144.723C167.787 143.08 168.822 141.588 169.569 140.462L168.32 139.633ZM156.66 158.332L155.216 157.927C153.427 164.312 155.717 167.88 156.482 170.466L157.92 170.041L159.359 169.616C158.41 166.406 156.618 164.044 158.105 158.736L156.66 158.332ZM157.92 170.041L156.474 170.44C156.707 171.284 156.693 172.236 156.549 173.245C156.396 174.315 156.159 175.151 155.97 176.11L157.442 176.4L158.913 176.69C159.044 176.028 159.356 174.81 159.519 173.668C159.69 172.467 159.755 171.05 159.366 169.642L157.92 170.041Z" fill="#FBE70B" mask="url(#path-18-inside-1_678_6595)"/>
<path d="M203.532 176.4C202.507 161.053 199.895 146.991 195.72 140.145C200.877 138.499 204.565 133.081 203.985 127.47C203.355 121.052 196.089 116.583 195.795 108.167C195.585 101.867 190.537 91.7951 177.441 91.1483C171.402 90.8375 168.546 94.2731 166.538 94.4747C162.111 94.3403 159.65 102.278 160.07 104.748C160.49 107.209 161.977 109.183 162.733 109.905C162.817 106.461 165.455 101.06 166.085 100.64C166.933 104.319 170.301 108.771 174.997 110.955C176.4 111.627 178.164 110.275 179.659 110.552C182.229 111.065 183.204 113.887 181.305 116.289C180.281 117.675 178.869 117.751 178.164 118.331C178.021 119.339 179.701 121.766 179.449 126.68C179.222 131.241 179.533 134.635 184.103 138.692C186.606 140.666 191.595 140.859 194.628 139.784C199.701 143.816 202.297 161.96 203.145 176.4" stroke="#FBE70B" stroke-width="1.68" stroke-linecap="round" stroke-linejoin="round"/>
<path d="M180.096 160.776L179.071 176.383" stroke="#FBE70B" stroke-width="2.1" stroke-linecap="round" stroke-linejoin="round"/>
<path d="M168.252 140.448C169.537 140.96 175.753 141.162 181.196 137.92L182.221 136.962" stroke="#FBE70B" stroke-width="1.68" stroke-linecap="round" stroke-linejoin="round"/>
<mask id="path-23-inside-2_678_6595" fill="white">
<path d="M5.99951 176.5C7.27631 162.438 8.56151 147.024 16.4071 138.809C18.6835 135.987 21.5395 133.105 23.7235 131.803L24.1855 124.89C20.4643 119.699 15.3571 114.18 15.2395 106.704C15.2395 103.588 16.9447 101.16 18.7591 100.581C19.0951 95.7422 22.5223 92.5082 27.0919 92.5082H32.8711C37.4407 92.5082 38.2471 90.1814 42.3043 90.551C47.2939 90.9626 48.4783 94.751 48.2599 97.9766C48.0583 99.9002 46.5631 101.706 46.3111 102.252C47.1595 103.689 47.5291 108.401 48.0331 110.115C48.9991 112.576 50.3431 114.222 50.3431 115.314C50.3431 116.843 47.0671 117.045 46.9831 117.792C46.6891 120.48 46.9831 123.6 44.2531 126.125C43.5737 126.754 42.5179 129.066 39.0151 128.1"/>
</mask>
<path d="M16.4071 138.809L17.4919 139.845L17.5353 139.8L17.5747 139.751L16.4071 138.809ZM23.7235 131.803L24.4916 133.092L25.1677 132.689L25.2202 131.903L23.7235 131.803ZM24.1855 124.89L25.6822 124.99L25.718 124.454L25.4046 124.016L24.1855 124.89ZM15.2395 106.704H13.7395V106.716L13.7397 106.728L15.2395 106.704ZM18.7591 100.581L19.2156 102.009L20.185 101.7L20.2555 100.685L18.7591 100.581ZM42.3043 90.551L42.1682 92.0449L42.181 92.0459L42.3043 90.551ZM48.2599 97.9766L49.7517 98.133L49.7546 98.1055L49.7565 98.0779L48.2599 97.9766ZM46.3111 102.252L44.9492 101.624L44.6196 102.338L45.0196 103.015L46.3111 102.252ZM48.0331 110.115L46.5941 110.538L46.6127 110.601L46.6368 110.663L48.0331 110.115ZM46.9831 117.792L45.4925 117.625L45.492 117.629L46.9831 117.792ZM44.2531 126.125L43.2345 125.024V125.024L44.2531 126.125ZM5.99951 176.5L7.49337 176.635C8.13421 169.578 8.76783 162.311 10.2049 155.785C11.645 149.244 13.8509 143.658 17.4919 139.845L16.4071 138.809L15.3223 137.773C11.1177 142.176 8.75825 148.404 7.2751 155.139C5.789 161.889 5.14162 169.36 4.50566 176.364L5.99951 176.5ZM16.4071 138.809L17.5747 139.751C19.8226 136.964 22.5431 134.253 24.4916 133.092L23.7235 131.803L22.9554 130.515C20.536 131.957 17.5444 135.01 15.2395 137.867L16.4071 138.809ZM23.7235 131.803L25.2202 131.903L25.6822 124.99L24.1855 124.89L22.6889 124.79L22.2268 131.703L23.7235 131.803ZM24.1855 124.89L25.4046 124.016C23.4623 121.307 21.3657 118.781 19.6515 115.889C17.9725 113.057 16.7926 110.067 16.7393 106.681L15.2395 106.704L13.7397 106.728C13.804 110.818 15.2365 114.325 17.0709 117.419C18.87 120.454 21.1876 123.283 22.9664 125.764L24.1855 124.89ZM15.2395 106.704H16.7395C16.7395 104.025 18.2059 102.332 19.2156 102.009L18.7591 100.581L18.3027 99.1518C15.6836 99.9884 13.7395 103.15 13.7395 106.704H15.2395ZM18.7591 100.581L20.2555 100.685C20.5398 96.5911 23.3511 94.0082 27.0919 94.0082V92.5082V91.0082C21.6935 91.0082 17.6504 94.8934 17.2627 100.477L18.7591 100.581ZM27.0919 92.5082V94.0082H32.8711V92.5082V91.0082H27.0919V92.5082ZM32.8711 92.5082V94.0082C35.4687 94.0082 37.0429 93.3253 38.3588 92.7748C39.5766 92.2653 40.5137 91.8941 42.1682 92.0448L42.3043 90.551L42.4404 89.0572C40.0377 88.8383 38.543 89.4457 37.2009 90.0072C35.9569 90.5277 34.8431 91.0082 32.8711 91.0082V92.5082ZM42.3043 90.551L42.181 92.0459C44.2606 92.2175 45.3562 93.0504 45.9698 94.0142C46.6308 95.0523 46.8599 96.4495 46.7633 97.8753L48.2599 97.9766L49.7565 98.0779C49.8783 96.2782 49.6244 94.1683 48.5004 92.403C47.329 90.5632 45.3376 89.2961 42.4276 89.0561L42.3043 90.551ZM48.2599 97.9766L46.7681 97.8203C46.6993 98.4766 46.3937 99.1951 45.9992 99.8919C45.8077 100.23 45.6122 100.534 45.4344 100.809C45.2941 101.026 45.0696 101.363 44.9492 101.624L46.3111 102.252L47.673 102.881C47.663 102.903 47.6715 102.881 47.7335 102.781C47.7893 102.692 47.8592 102.584 47.9528 102.439C48.1325 102.162 48.3706 101.792 48.6096 101.37C49.0761 100.547 49.6189 99.4002 49.7517 98.133L48.2599 97.9766ZM46.3111 102.252L45.0196 103.015C45.1097 103.168 45.2509 103.542 45.4091 104.198C45.5578 104.814 45.6922 105.548 45.8216 106.326C46.0645 107.786 46.3078 109.565 46.5941 110.538L48.0331 110.115L49.4722 109.691C49.2544 108.951 49.061 107.517 48.7809 105.833C48.6489 105.039 48.5003 104.219 48.3254 103.494C48.1598 102.808 47.9367 102.055 47.6026 101.489L46.3111 102.252ZM48.0331 110.115L46.6368 110.663C47.1593 111.994 47.7878 113.111 48.2271 113.934C48.4559 114.363 48.6203 114.687 48.7289 114.953C48.8419 115.231 48.8431 115.327 48.8431 115.314H50.3431H51.8431C51.8431 114.756 51.6763 114.237 51.5072 113.821C51.3336 113.395 51.1015 112.948 50.8737 112.522C50.3994 111.633 49.8729 110.697 49.4294 109.567L48.0331 110.115ZM50.3431 115.314H48.8431C48.8431 115.076 48.9979 114.986 48.8956 115.068C48.7683 115.169 48.53 115.295 48.133 115.455C47.8415 115.573 47.2661 115.78 46.9124 115.944C46.715 116.035 46.4448 116.174 46.2005 116.374C45.9673 116.565 45.5659 116.971 45.4925 117.625L46.9831 117.792L48.4737 117.96C48.4213 118.426 48.1407 118.663 48.1027 118.694C48.0537 118.734 48.0532 118.722 48.1747 118.665C48.4589 118.534 48.7182 118.454 49.2562 118.237C49.6888 118.062 50.2746 117.805 50.7642 117.415C51.2788 117.005 51.8431 116.317 51.8431 115.314H50.3431ZM46.9831 117.792L45.492 117.629C45.1579 120.684 45.4384 122.985 43.2345 125.024L44.2531 126.125L45.2717 127.226C48.5278 124.214 48.2203 120.277 48.4742 117.955L46.9831 117.792ZM44.2531 126.125L43.2345 125.024C43.069 125.177 42.9223 125.352 42.8219 125.472C42.6997 125.62 42.6171 125.724 42.503 125.857C42.2929 126.101 42.0865 126.308 41.8485 126.471C41.4524 126.74 40.7728 127.028 39.4139 126.654L39.0151 128.1L38.6164 129.546C40.7602 130.137 42.3599 129.752 43.5373 128.95C44.086 128.576 44.4899 128.148 44.7783 127.812C44.9134 127.655 45.0521 127.483 45.1313 127.387C45.1771 127.332 45.2108 127.293 45.2378 127.263C45.2654 127.232 45.2753 127.223 45.2717 127.226L44.2531 126.125Z" fill="#FBE70B" mask="url(#path-23-inside-2_678_6595)"/>
<path d="M6.48438 176.4C7.76118 162.338 9.04638 146.924 16.892 138.709C19.1684 135.887 22.0244 133.005 24.2084 131.703L24.6704 126.848C20.9492 121.657 15.842 115.794 15.7244 108.318C15.7244 105.201 16.976 102.278 19.244 101.699C19.58 96.8602 23.0072 92.8534 27.5768 92.8534H32.6756C37.2452 92.8534 37.892 90.7534 42.0752 90.7534C46.8548 90.7534 48.9632 94.651 48.7448 97.8766C48.5432 99.8002 47.552 101.505 46.3592 102.278C45.2168 103.001 42.68 103.664 39.992 103.866C38.4716 103.975 35.7668 104.269 34.8428 104.269C35.4644 105.907 35.3468 110.157 33.7424 112.089C32.5496 112.089 31.592 109.561 29.5004 109.981C27.686 110.393 26.8964 112.089 27.0056 114.013C27.14 116.407 29.4164 117.432 29.8364 118.154C29.1308 120.909 26.5604 123.665 25.0652 124.076L24.0404 131.325C26.6108 133.652 31.1804 135.248 35.1704 135.105C36.7748 135.038 39.152 134.744 39.152 134.333V128.696" stroke="#FBE70B" stroke-width="1.68" stroke-linecap="round" stroke-linejoin="round"/>
<path d="M56.793 176.4C53.7186 160.986 48.4182 144.32 39.6738 135.173" stroke="#FBE70B" stroke-width="2.1" stroke-linecap="round" stroke-linejoin="round"/>
<path d="M27.8711 155.232L30.3323 176.249" stroke="#FBE70B" stroke-width="1.68" stroke-linecap="round" stroke-linejoin="round"/>
<path d="M11.0884 156.744L11.4664 153.208" stroke="#FBE70B" stroke-width="0.42" stroke-linecap="round" stroke-linejoin="round"/>
<path d="M46.9644 144.732L48.6024 147.974" stroke="#FBE70B" stroke-width="0.42" stroke-linecap="round" stroke-linejoin="round"/>
<path d="M51.0557 162.372L51.2657 160.314" stroke="#FBE70B" stroke-width="0.42" stroke-linecap="round" stroke-linejoin="round"/>
<path d="M13.188 145.908L13.566 144.606" stroke="#FBE70B" stroke-width="0.42" stroke-linecap="round" stroke-linejoin="round"/>
<path d="M43.8564 142.212L44.2764 141.195" stroke="#FBE70B" stroke-width="0.42" stroke-linecap="round" stroke-linejoin="round"/>
</svg>
