<svg width="111" height="30" viewBox="0 0 111 30" fill="none" xmlns="http://www.w3.org/2000/svg">
<path d="M9.11765 23.8235L0 10L10 10.2941L16.4706 20L10.2941 30H0.294118L5.88235 20.8824L9.11765 23.8235Z" fill="#335CF4"/>
<path d="M17.647 13.8235L26.7646 0H16.7646L9.99994 10.2941L16.4705 20H26.4705L20.8823 10.8824L17.647 13.8235Z" fill="#335CF4"/>
<path d="M32.3494 20.4482H35.6013C35.6306 20.8779 35.7527 21.2881 35.9675 21.6787C36.1824 22.0693 36.4753 22.4111 36.8464 22.7041C37.2175 22.9971 37.6716 23.2314 38.2087 23.4072C38.7556 23.5732 39.3855 23.6562 40.0984 23.6562C40.9578 23.6562 41.6951 23.5293 42.3103 23.2754C42.9255 23.0215 43.3992 22.6602 43.7312 22.1914C44.0632 21.7227 44.2292 21.1758 44.2292 20.5508C44.2292 19.7891 43.9705 19.1885 43.4529 18.749C42.9353 18.2998 42.1394 17.9482 41.0652 17.6943L37.7839 16.874C36.9246 16.6689 36.1238 16.3516 35.3816 15.9219C34.6394 15.4922 34.0388 14.916 33.5798 14.1934C33.1208 13.4609 32.8914 12.5576 32.8914 11.4834C32.8914 10.2041 33.2234 9.125 33.8875 8.24609C34.5515 7.36719 35.4304 6.70313 36.5242 6.25391C37.6179 5.79492 38.8142 5.56543 40.113 5.56543C41.4119 5.56543 42.5984 5.79492 43.6726 6.25391C44.7566 6.70313 45.6257 7.3623 46.28 8.23145C46.9343 9.09082 47.2761 10.1455 47.3054 11.3955H44.1121C44.073 10.8291 43.8972 10.3115 43.5847 9.84277C43.2722 9.37402 42.823 8.99805 42.2371 8.71484C41.6511 8.43164 40.9285 8.29004 40.0691 8.29004C38.9265 8.29004 37.9988 8.54883 37.2859 9.06641C36.5828 9.58398 36.2312 10.3066 36.2312 11.2344C36.2312 11.8887 36.4607 12.4453 36.9197 12.9043C37.3787 13.3535 38.072 13.6855 38.9998 13.9004L42.2664 14.7061C43.2722 14.9502 44.1707 15.292 44.9617 15.7314C45.7625 16.1611 46.3923 16.7422 46.8513 17.4746C47.3201 18.1973 47.5544 19.125 47.5544 20.2578C47.5544 21.5762 47.2224 22.6943 46.5583 23.6123C45.9041 24.5205 45.0007 25.2139 43.8484 25.6924C42.696 26.1611 41.363 26.3955 39.8494 26.3955C38.4626 26.3955 37.2908 26.2148 36.3337 25.8535C35.3767 25.4922 34.6101 25.0186 34.0339 24.4326C33.4578 23.8467 33.033 23.207 32.7595 22.5137C32.4958 21.8203 32.3591 21.1318 32.3494 20.4482ZM56.132 26.2637C54.755 26.2637 53.5587 25.9707 52.5431 25.3848C51.5275 24.7988 50.7414 23.959 50.1847 22.8652C49.6281 21.7715 49.3498 20.4629 49.3498 18.9395V17.3721C49.3498 15.9268 49.6232 14.6719 50.1701 13.6074C50.7169 12.543 51.4835 11.7178 52.4699 11.1318C53.466 10.5459 54.6427 10.2529 56.0001 10.2529C57.3771 10.2529 58.5587 10.5557 59.5451 11.1611C60.5412 11.7666 61.3029 12.6113 61.8302 13.6953C62.3576 14.7793 62.6212 16.0537 62.6212 17.5186V18.998H52.5578V19.3643C52.5578 20.6631 52.8849 21.7129 53.5392 22.5137C54.1935 23.3047 55.0724 23.7002 56.1759 23.7002C56.7228 23.7002 57.2111 23.6172 57.6408 23.4512C58.0705 23.2754 58.4269 23.0264 58.7101 22.7041C59.0031 22.3721 59.2179 21.9863 59.3546 21.5469H62.4455C62.3283 22.1719 62.1134 22.7676 61.8009 23.334C61.4884 23.9004 61.0685 24.4033 60.5412 24.8428C60.0236 25.2822 59.3986 25.6289 58.6662 25.8828C57.9337 26.1367 57.089 26.2637 56.132 26.2637ZM52.5578 16.7275H59.4425C59.4425 16.7178 59.4425 16.708 59.4425 16.6982C59.4425 15.9658 59.3009 15.3066 59.0177 14.7207C58.7345 14.125 58.3341 13.6514 57.8166 13.2998C57.3087 12.9482 56.7082 12.7725 56.0148 12.7725C55.3214 12.7725 54.716 12.9482 54.1984 13.2998C53.6808 13.6514 53.2755 14.125 52.9826 14.7207C52.6994 15.3066 52.5578 15.9658 52.5578 16.6982C52.5578 16.708 52.5578 16.7178 52.5578 16.7275ZM65.1636 26V10.5166H68.357V12.6846H68.4742C68.65 12.3428 68.9283 11.9863 69.3091 11.6152C69.69 11.2441 70.1832 10.9316 70.7886 10.6777C71.4039 10.4141 72.1314 10.2822 72.9712 10.2822C74.563 10.2822 75.8667 10.7754 76.8824 11.7617C77.898 12.7383 78.4058 14.1689 78.4058 16.0537V26H75.1685V16.7129C75.1685 15.873 75.022 15.1895 74.7291 14.6621C74.4361 14.1348 74.0357 13.7441 73.5279 13.4902C73.0201 13.2363 72.4439 13.1094 71.7994 13.1094C71.0376 13.1094 70.4029 13.2754 69.8951 13.6074C69.397 13.9297 69.021 14.3691 68.7671 14.9258C68.523 15.4727 68.4009 16.0879 68.4009 16.7715V26H65.1636ZM86.8662 10.3115C87.5498 10.3115 88.1796 10.4141 88.7558 10.6191C89.3417 10.8242 89.8447 11.1123 90.2646 11.4834C90.6943 11.8447 91.0312 12.2598 91.2753 12.7285H91.3925V4.9502H94.6445V26H91.4804V23.6416H91.3632C91.1679 24.0322 90.9189 24.3887 90.6162 24.7109C90.3232 25.0332 89.9863 25.3066 89.6054 25.5312C89.2246 25.7461 88.8046 25.9121 88.3457 26.0293C87.8867 26.1465 87.3935 26.2051 86.8662 26.2051C85.5673 26.2051 84.4687 25.9072 83.5703 25.3115C82.6718 24.7061 81.9882 23.8564 81.5195 22.7627C81.0507 21.6689 80.8164 20.3896 80.8164 18.9248V17.5771C80.8164 16.1318 81.0556 14.8672 81.5341 13.7832C82.0224 12.6895 82.7158 11.8398 83.6142 11.2344C84.5224 10.6191 85.6064 10.3115 86.8662 10.3115ZM87.6865 12.9922C87.0126 12.9922 86.4023 13.1631 85.8554 13.5049C85.3183 13.8467 84.8935 14.3691 84.581 15.0723C84.2783 15.7656 84.1269 16.6396 84.1269 17.6943V18.8369C84.1269 19.8818 84.2832 20.7559 84.5957 21.459C84.9082 22.1523 85.333 22.6748 85.8701 23.0264C86.4072 23.3682 87.0224 23.5391 87.7158 23.5391C88.4775 23.5391 89.1367 23.3584 89.6933 22.9971C90.25 22.626 90.6748 22.0938 90.9677 21.4004C91.2705 20.707 91.4218 19.8574 91.4218 18.8516V17.6943C91.4218 16.7275 91.2705 15.8926 90.9677 15.1895C90.665 14.4863 90.2353 13.9443 89.6787 13.5635C89.122 13.1826 88.458 12.9922 87.6865 12.9922ZM98.3441 26V10.6631H100.453V26H98.3441ZM97.9486 6.92773C97.9486 6.51758 98.0902 6.1709 98.3734 5.8877C98.6566 5.60449 98.9935 5.46289 99.3841 5.46289C99.7943 5.46289 100.141 5.60449 100.424 5.8877C100.707 6.1709 100.849 6.51758 100.849 6.92773C100.849 7.32812 100.707 7.66992 100.424 7.95312C100.141 8.23633 99.7943 8.37793 99.3841 8.37793C98.9935 8.37793 98.6566 8.23633 98.3734 7.95312C98.0902 7.66992 97.9486 7.32812 97.9486 6.92773ZM105.252 10.6631V6.8252H107.361V10.6631H110.525V12.4795H107.361V21.9863C107.361 22.9238 107.547 23.5537 107.918 23.876C108.289 24.1885 108.963 24.3447 109.939 24.3447C110.076 24.3447 110.203 24.3398 110.32 24.3301C110.437 24.3203 110.55 24.3105 110.657 24.3008V26.0439C110.55 26.0635 110.379 26.083 110.144 26.1025C109.91 26.1318 109.666 26.1465 109.412 26.1465C108.25 26.1465 107.371 25.9951 106.775 25.6924C106.179 25.3799 105.774 24.9062 105.559 24.2715C105.354 23.627 105.252 22.8164 105.252 21.8398V12.4795H103.142V10.6631H105.252Z" fill="#335CF4"/>
</svg>
