<svg width="194" height="51" viewBox="0 0 194 51" fill="none" xmlns="http://www.w3.org/2000/svg">
<path d="M15.5 40.5L0 17L17 17.5L28 34L17.5 51H0.5L10 35.5L15.5 40.5Z" fill="#335CF4"/>
<path d="M30 23.5L45.5 0H28.5L17 17.5L28 34H45L35.5 18.5L30 23.5Z" fill="#335CF4"/>
<path d="M54.9941 34.562H60.5225C60.5723 35.2925 60.7798 35.9897 61.145 36.6538C61.5103 37.3179 62.0083 37.8989 62.6392 38.397C63.27 38.895 64.042 39.2935 64.9551 39.5923C65.8848 39.8745 66.9556 40.0156 68.1675 40.0156C69.6284 40.0156 70.8818 39.7998 71.9277 39.3682C72.9736 38.9365 73.7788 38.3223 74.3433 37.5254C74.9077 36.7285 75.1899 35.7988 75.1899 34.7363C75.1899 33.4414 74.75 32.4204 73.8701 31.6733C72.9902 30.9097 71.6372 30.312 69.811 29.8804L64.2329 28.4858C62.772 28.1372 61.4106 27.5977 60.1489 26.8672C58.8872 26.1367 57.8662 25.1572 57.0859 23.9287C56.3057 22.6836 55.9155 21.1479 55.9155 19.3218C55.9155 17.147 56.48 15.3125 57.6089 13.8184C58.7378 12.3242 60.2319 11.1953 62.0913 10.4316C63.9507 9.65137 65.9844 9.26123 68.1924 9.26123C70.4004 9.26123 72.4175 9.65137 74.2437 10.4316C76.0864 11.1953 77.564 12.3159 78.6763 13.7935C79.7886 15.2544 80.3696 17.0474 80.4194 19.1724H74.9907C74.9243 18.2095 74.6255 17.3296 74.0942 16.5327C73.563 15.7358 72.7993 15.0967 71.8032 14.6152C70.8071 14.1338 69.5786 13.8931 68.1177 13.8931C66.1753 13.8931 64.5981 14.333 63.3862 15.2129C62.1909 16.0928 61.5933 17.3213 61.5933 18.8984C61.5933 20.0107 61.9834 20.957 62.7637 21.7373C63.5439 22.501 64.7227 23.0654 66.2998 23.4307L71.853 24.8003C73.563 25.2153 75.0903 25.7964 76.4351 26.5435C77.7964 27.2739 78.8672 28.2617 79.6475 29.5068C80.4443 30.7354 80.8428 32.3125 80.8428 34.2383C80.8428 36.4795 80.2783 38.3804 79.1494 39.9409C78.0371 41.4849 76.5015 42.6636 74.5425 43.4771C72.5835 44.2739 70.3174 44.6724 67.7441 44.6724C65.3867 44.6724 63.3945 44.3652 61.7676 43.751C60.1406 43.1367 58.8374 42.3315 57.8579 41.3354C56.8784 40.3394 56.1562 39.252 55.6914 38.0732C55.2432 36.8945 55.0107 35.7241 54.9941 34.562ZM96.4207 44.4482C94.0799 44.4482 92.0462 43.9502 90.3196 42.9541C88.593 41.958 87.2566 40.5303 86.3103 38.6709C85.364 36.8115 84.8909 34.5869 84.8909 31.9971V29.3325C84.8909 26.8755 85.3557 24.7422 86.2854 22.9326C87.2151 21.123 88.5183 19.7202 90.1951 18.7241C91.8885 17.728 93.8889 17.23 96.1966 17.23C98.5374 17.23 100.546 17.7446 102.223 18.7739C103.916 19.8032 105.211 21.2393 106.108 23.082C107.004 24.9248 107.452 27.0913 107.452 29.5815V32.0967H90.3445V32.7192C90.3445 34.9272 90.9007 36.7119 92.013 38.0732C93.1253 39.418 94.6194 40.0903 96.4954 40.0903C97.4251 40.0903 98.2552 39.9492 98.9856 39.667C99.7161 39.3682 100.322 38.9448 100.803 38.397C101.302 37.8325 101.667 37.1768 101.899 36.4297H107.154C106.954 37.4922 106.589 38.5049 106.058 39.4678C105.527 40.4307 104.813 41.2856 103.916 42.0327C103.036 42.7798 101.974 43.3691 100.729 43.8008C99.4837 44.2324 98.0476 44.4482 96.4207 44.4482ZM90.3445 28.2368H102.049C102.049 28.2202 102.049 28.2036 102.049 28.187C102.049 26.9419 101.808 25.8213 101.326 24.8252C100.845 23.8125 100.164 23.0073 99.2845 22.4097C98.4212 21.812 97.4002 21.5132 96.2215 21.5132C95.0428 21.5132 94.0135 21.812 93.1336 22.4097C92.2537 23.0073 91.5647 23.8125 91.0667 24.8252C90.5852 25.8213 90.3445 26.9419 90.3445 28.187C90.3445 28.2036 90.3445 28.2202 90.3445 28.2368ZM112.771 44V17.6782H118.199V21.3638H118.398C118.697 20.7827 119.17 20.1768 119.818 19.5459C120.465 18.915 121.304 18.3838 122.333 17.9521C123.379 17.5039 124.616 17.2798 126.044 17.2798C128.75 17.2798 130.966 18.1182 132.692 19.7949C134.419 21.4551 135.282 23.8872 135.282 27.0913V44H129.779V28.2119C129.779 26.7842 129.53 25.6221 129.032 24.7256C128.534 23.8291 127.853 23.165 126.99 22.7334C126.127 22.3018 125.147 22.0859 124.051 22.0859C122.756 22.0859 121.677 22.3682 120.814 22.9326C119.967 23.4805 119.328 24.2275 118.897 25.1738C118.482 26.1035 118.274 27.1494 118.274 28.3115V44H112.771ZM150.661 17.3296C151.823 17.3296 152.894 17.5039 153.873 17.8525C154.869 18.2012 155.724 18.6909 156.438 19.3218C157.169 19.936 157.742 20.6416 158.157 21.4385H158.356V8.21533H163.884V44H158.505V39.9907H158.306C157.974 40.6548 157.551 41.2607 157.036 41.8086C156.538 42.3564 155.965 42.8213 155.318 43.2031C154.67 43.5684 153.956 43.8506 153.176 44.0498C152.396 44.249 151.557 44.3486 150.661 44.3486C148.453 44.3486 146.585 43.8423 145.058 42.8296C143.531 41.8003 142.368 40.356 141.572 38.4966C140.775 36.6372 140.376 34.4624 140.376 31.9722V29.6812C140.376 27.2241 140.783 25.0742 141.597 23.2314C142.427 21.3721 143.605 19.9277 145.133 18.8984C146.677 17.8525 148.519 17.3296 150.661 17.3296ZM152.056 21.8867C150.91 21.8867 149.872 22.1772 148.943 22.7583C148.03 23.3394 147.307 24.2275 146.776 25.4229C146.262 26.6016 146.004 28.0874 146.004 29.8804V31.8228C146.004 33.5991 146.27 35.085 146.801 36.2803C147.332 37.459 148.055 38.3472 148.968 38.9448C149.881 39.5259 150.927 39.8164 152.105 39.8164C153.4 39.8164 154.521 39.5093 155.467 38.895C156.413 38.2642 157.136 37.3594 157.634 36.1807C158.148 35.002 158.406 33.5576 158.406 31.8477V29.8804C158.406 28.2368 158.148 26.8174 157.634 25.6221C157.119 24.4268 156.389 23.5054 155.442 22.8579C154.496 22.2104 153.367 21.8867 152.056 21.8867ZM171.17 44V17.9272H174.755V44H171.17ZM170.497 11.5771C170.497 10.8799 170.738 10.2905 171.219 9.80908C171.701 9.32764 172.274 9.08691 172.938 9.08691C173.635 9.08691 174.224 9.32764 174.706 9.80908C175.187 10.2905 175.428 10.8799 175.428 11.5771C175.428 12.2578 175.187 12.8389 174.706 13.3203C174.224 13.8018 173.635 14.0425 172.938 14.0425C172.274 14.0425 171.701 13.8018 171.219 13.3203C170.738 12.8389 170.497 12.2578 170.497 11.5771ZM183.909 17.9272V11.4028H187.495V17.9272H192.873V21.0151H187.495V37.1768C187.495 38.7705 187.81 39.8413 188.441 40.3892C189.072 40.9204 190.217 41.186 191.877 41.186C192.11 41.186 192.326 41.1777 192.525 41.1611C192.724 41.1445 192.915 41.1279 193.098 41.1113V44.0747C192.915 44.1079 192.624 44.1411 192.226 44.1743C191.828 44.2241 191.412 44.249 190.981 44.249C189.005 44.249 187.511 43.9917 186.498 43.4771C185.486 42.9458 184.797 42.1406 184.432 41.0615C184.083 39.9658 183.909 38.5879 183.909 36.9277V21.0151H180.323V17.9272H183.909Z" fill="white"/>
</svg>
