<svg width="210" height="190" viewBox="0 0 210 190" fill="none" xmlns="http://www.w3.org/2000/svg">
<path d="M198.744 14.792H118.877C115.702 14.792 113.778 17.1944 113.778 19.3112V74.0792C113.778 77.1788 116.013 78.7244 118.373 78.7244H199.038C201.827 78.7244 202.768 75.4568 202.768 74.432V19.0844C202.768 16.8248 200.718 14.792 198.744 14.792Z" fill="#FDF382" stroke="#FBE70B" stroke-width="2.1" stroke-miterlimit="10"/>
<path d="M126.252 29.1567H190.512" stroke="#3F2B04" stroke-width="2.52" stroke-miterlimit="10" stroke-linecap="round"/>
<path d="M126.169 39.4209H166.749" stroke="#3F2B04" stroke-width="2.52" stroke-miterlimit="10" stroke-linecap="round"/>
<path d="M164.724 78.7246C161.994 83.0422 158.559 85.747 151.242 89.9974L144.363 80.371L146.757 78.8086L156.669 78.7246H164.724Z" fill="#3F2B04" stroke="#FBE70B" stroke-width="2.1" stroke-linecap="round" stroke-linejoin="round"/>
<path d="M136.751 80.178L117.616 93.744C110.291 87.5196 104.344 78.7248 92.542 70.5348C87.0232 66.7632 77.9176 66.2676 72.424 65.3184L55.624 65.5032C46.762 66.2844 40.2016 66.8304 32.566 72.1392C24.2416 76.734 17.8072 90.0312 11.7172 105.059C3.58597 124.286 4.18237 131.099 13.4644 136.886C19.6132 140.902 23.452 142.876 29.5924 144.724L28.87 156.064C33.5656 157.87 44.1244 159.256 58.0432 159.86C73.3984 160.566 85.2172 158.886 98.6908 155.82L98.0524 148.462L124.151 145.396C132.593 139.952 143.824 129.704 153.652 93.2064L140.523 79.4304L136.751 80.178Z" fill="#3F2B04" stroke="#FBE70B" stroke-width="2.1" stroke-linecap="round" stroke-linejoin="round"/>
<path d="M96.432 156.996L101.212 193.763H28.5684L32.5416 157.114C39.6648 159.163 50.232 159.995 59.0688 159.995C71.61 159.995 83.2524 159.062 96.432 156.996Z" fill="#3F2B04" stroke="#FBE70B" stroke-width="2.1" stroke-linecap="round" stroke-linejoin="round"/>
<path d="M71.2915 173.796C67.2427 177.215 66.3691 181.424 66.1843 183.339L63.9331 193.788" stroke="#FBE70B" stroke-width="2.1" stroke-linecap="round" stroke-linejoin="round"/>
<path d="M67.4771 181.272L70.1566 193.418" stroke="#FBE70B" stroke-width="2.1" stroke-linecap="round" stroke-linejoin="round"/>
<path d="M124.152 104.16L96.5747 92.8789L45.1751 97.1209V124.295L56.3807 130.125L50.7527 149.974C42.0335 147.974 32.3399 145.354 28.7279 143.548L27.9131 143.859C31.8107 145.665 36.1787 147.412 39.9251 148.479C44.0747 149.654 48.6359 150.385 50.8535 150.822L52.3319 147.664C56.8679 149.319 60.5807 154.031 68.8043 154.829C73.7351 155.299 77.1119 154.577 78.5231 152.091C82.0343 151.965 83.7899 150.814 84.8399 148.227C85.8311 147.899 87.0911 146.891 86.2931 144.699C85.9151 143.758 84.7811 143.388 84.7811 143.388C86.3771 142.599 86.6543 140.952 85.5875 139.625C84.7307 138.819 81.2951 139.037 78.8759 138.819C77.2799 138.709 74.8607 138.424 74.5247 138.079L74.4743 128.713L74.0879 108.587L124.152 104.16Z" fill="#977E02" stroke="#FBE70B" stroke-width="2.1" stroke-linecap="round" stroke-linejoin="round"/>
<path d="M124.152 104.245V145.27L84.42 148.462L85.5288 145.27L84.1932 143.002L84.9576 140.818L83.3616 139.147L74.8608 138.466V108.369L124.152 104.245Z" fill="#C5A402" stroke="#FBE70B" stroke-width="2.1" stroke-linecap="round" stroke-linejoin="round"/>
<path d="M27.0151 116.676L56.3731 130.074L50.6359 149.646" stroke="#FBE70B" stroke-width="2.1" stroke-linecap="round" stroke-linejoin="round"/>
<path d="M33.4399 118.524L39.4711 101.463" stroke="#FBE70B" stroke-width="2.1" stroke-linecap="round" stroke-linejoin="round"/>
<path d="M56.6251 132.552C59.6491 132.964 63.2191 131.049 64.5631 130.469C67.1419 129.385 69.7963 128.655 73.1731 128.285C74.7691 128.176 75.1051 130.25 73.8451 131.678C72.7615 132.922 70.7959 133.72 69.1411 134.745C67.5535 135.719 68.2927 137.525 71.9551 138.348C75.4915 139.154 79.0447 139.541 82.6231 139.549C85.6135 139.491 86.3527 142.069 83.1691 143.035C79.9855 144.001 73.8451 143.035 69.3931 142.237C72.8791 144.094 76.4323 145.169 83.1523 145.077C85.2859 145.043 86.4787 147.949 81.6151 148.773C77.9611 149.394 73.8451 148.714 69.1411 147.513C73.0051 148.899 74.1643 149.025 78.4651 149.655C79.9267 149.865 79.6411 152.233 75.5251 152.452C71.5939 152.645 68.7211 151.881 64.5631 150.209C61.9843 149.176 57.5995 146.589 53.4331 146.085L56.6251 132.552Z" fill="#3F2B04" stroke="#FBE70B" stroke-width="1.68" stroke-linecap="round" stroke-linejoin="round"/>
<path d="M137.592 78.7247H140.784C142.615 78.7247 142.901 75.0035 143.237 72.8195C143.758 69.6275 144.405 64.8563 145.513 62.0003C146.253 60.4883 148.092 61.0091 148.705 62.8739C149.1 64.0667 149.613 66.0323 150.024 68.1071C153.594 64.1255 157.341 59.4131 159.525 57.6995C161.893 55.8347 163.431 57.3971 162.523 60.2615C161.725 62.9579 158.601 66.6035 157.668 67.7459C160.306 65.2259 161.952 63.6383 163.733 62.6051C166.253 61.2023 166.942 63.0671 165.917 65.3771C165.01 67.5695 161.44 70.8707 159.634 72.6515C162.213 70.6523 164.397 68.9303 166.371 67.8131C168.017 66.8975 169.193 68.2163 168.017 70.5851C166.942 72.9539 163.758 75.6923 162.465 77.0363C164.724 75.7763 165.573 74.7767 167.278 73.5839C168.681 72.6095 169.932 73.8023 168.681 75.6923C168.017 76.7171 166.421 78.2543 165.631 78.7247" stroke="#FBE70B" stroke-width="2.1" stroke-linecap="round" stroke-linejoin="round"/>
<path d="M160.188 47.6118L161.045 52.9038" stroke="#FBE70B" stroke-width="2.52" stroke-miterlimit="10" stroke-linecap="round"/>
<path d="M169.764 48.9556L167.034 53.836" stroke="#FBE70B" stroke-width="2.52" stroke-miterlimit="10" stroke-linecap="round"/>
<path d="M175.307 57.145L170.393 58.4722" stroke="#FBE70B" stroke-width="2.52" stroke-miterlimit="10" stroke-linecap="round"/>
<path d="M149.184 70.5933L150.99 73.1721V76.3641" stroke="#FBE70B" stroke-width="2.1" stroke-linecap="round" stroke-linejoin="round"/>
<path d="M55.3648 56.2289C47.1748 48.0389 45.0412 42.0581 47.032 36.3881C47.7292 34.3637 48.8464 33.4397 50.1988 32.7425C51.2488 27.9545 54.9448 25.9133 60.5728 25.4597C65.3608 25.0733 65.6968 25.0397 70.0648 23.3597C74.9788 21.9905 78.2548 24.2837 79.1368 28.7357C79.8676 32.0117 78.3388 34.9853 77.1376 37.6229L77.3476 39.4205C77.3476 39.4205 82.916 52.1139 77.7003 55.8595C75.594 57.372 71.3248 57.7157 71.3248 57.7157L72.0808 65.0237C72.2488 68.8877 69.7456 72.0797 66.1588 71.8277C60.8248 71.6597 57.2128 67.8797 55.6168 65.2757L55.3648 56.2289Z" fill="#3F2B04" stroke="#FBE70B" stroke-width="2.1" stroke-linecap="round" stroke-linejoin="round"/>
<path d="M77.7076 25.2086C75.1036 22.1846 71.4916 22.6046 68.8876 23.6126C65.9476 24.7634 63.7636 24.7046 59.8156 25.0406C54.6916 25.4606 50.8276 27.1406 49.9036 32.6846C48.3916 33.1886 47.1316 34.3646 46.2916 36.8846C44.1916 43.5206 47.9716 50.9126 55.1116 57.2966L56.5396 55.4486L56.7076 52.4246C54.6076 51.6686 52.9276 48.8966 53.6836 46.7966C54.4396 44.6966 56.5396 44.0246 57.9676 45.4526C58.8916 46.3766 59.3956 45.9566 59.3956 44.5286C59.3956 41.1686 59.0596 38.4806 65.4436 37.7246C69.4756 37.2206 73.8436 35.8766 75.2716 34.1126C76.3636 34.6166 77.1196 36.1286 77.4556 37.8086C79.7236 34.0286 80.9836 28.9886 77.7076 25.2086Z" fill="#3F2B04" stroke="#FBE70B" stroke-width="1.68" stroke-linecap="round" stroke-linejoin="round"/>
<path d="M63.5967 58.9761C65.4447 60.3201 67.2087 60.9921 70.9887 60.9921" stroke="#FBE70B" stroke-width="2.1" stroke-linecap="round" stroke-linejoin="round"/>
<path d="M47.9731 97.5239L59.3971 102.396L107.865 98.2799" stroke="#FBE70B" stroke-width="2.1" stroke-linecap="round" stroke-linejoin="round"/>
<path d="M61.3203 103.32L72.7443 108.192L121.212 104.076" stroke="#FBE70B" stroke-width="2.1" stroke-linecap="round" stroke-linejoin="round"/>
<path opacity="0.06" d="M28.4006 78.0449L29.9966 79.4729L26.9726 82.8329L24.4526 81.4889L28.4006 78.0449Z" fill="#3F2B04"/>
<path opacity="0.06" d="M88.3678 69.896L93.3238 72.668L101.724 80.648L100.884 84.008L93.3238 81.488L84.9238 71.408L88.3678 69.896Z" fill="#3F2B04"/>
<path opacity="0.06" d="M47.6367 165.564L34.0287 164.388L32.0127 192.444H48.4767L50.3247 168.42L47.6367 165.564Z" fill="#3F2B04"/>
<path opacity="0.06" d="M38.2288 144.228L34.5328 143.22L34.0288 146.412L39.2368 147.756L38.2288 144.228Z" fill="#3F2B04"/>
</svg>
