<svg width="75" height="76" viewBox="0 0 75 76" fill="none" xmlns="http://www.w3.org/2000/svg">
<path d="M35.7265 2.10557C35.8482 1.78083 36.0661 1.50098 36.3511 1.30342C36.6361 1.10586 36.9747 1 37.3215 1C37.6683 1 38.0068 1.10586 38.2918 1.30342C38.5768 1.50098 38.7948 1.78083 38.9165 2.10557L47.5498 26.5822H71.9331C72.2809 26.5836 72.62 26.6913 72.9049 26.8907C73.1899 27.0902 73.4071 27.3719 73.5275 27.6982C73.6478 28.0245 73.6656 28.3798 73.5785 28.7166C73.4913 29.0533 73.3034 29.3553 73.0398 29.5822L52.6665 46.4722L61.1931 72.0889C61.3063 72.4321 61.3077 72.8023 61.197 73.1463C61.0863 73.4903 60.8693 73.7902 60.5772 74.003C60.2851 74.2158 59.9331 74.3303 59.5717 74.3302C59.2104 74.33 58.8584 74.2152 58.5665 74.0022L37.3165 58.4122L16.0565 73.9989C15.7648 74.2102 15.4136 74.3235 15.0535 74.3227C14.6933 74.3219 14.3427 74.2069 14.0519 73.9944C13.7612 73.7818 13.5453 73.4825 13.4354 73.1395C13.3254 72.7966 13.3269 72.4276 13.4398 72.0856L21.9698 46.4689L1.59313 29.5789C1.32955 29.352 1.14161 29.0499 1.05445 28.7132C0.967297 28.3765 0.985098 28.0212 1.10547 27.6949C1.22584 27.3686 1.44304 27.0868 1.72798 26.8874C2.01292 26.6879 2.35199 26.5803 2.6998 26.5789H27.0865L35.7265 2.10557Z" fill="#015EFD"/>
<path d="M35.7265 2.10557C35.8482 1.78083 36.0661 1.50098 36.3511 1.30342C36.6361 1.10586 36.9747 1 37.3215 1C37.6683 1 38.0068 1.10586 38.2918 1.30342C38.5768 1.50098 38.7948 1.78083 38.9165 2.10557L47.5498 26.5822H71.9331C72.2809 26.5836 72.62 26.6913 72.9049 26.8907C73.1899 27.0902 73.4071 27.3719 73.5275 27.6982C73.6478 28.0245 73.6656 28.3798 73.5785 28.7166C73.4913 29.0533 73.3034 29.3553 73.0398 29.5822L52.6665 46.4722L61.1931 72.0889C61.3063 72.4321 61.3077 72.8023 61.197 73.1463C61.0863 73.4903 60.8693 73.7902 60.5772 74.003C60.2851 74.2158 59.9331 74.3303 59.5717 74.3302C59.2104 74.33 58.8584 74.2152 58.5665 74.0022L37.3165 58.4122L16.0565 73.9989C15.7648 74.2102 15.4136 74.3235 15.0535 74.3227C14.6933 74.3219 14.3427 74.2069 14.0519 73.9944C13.7612 73.7818 13.5453 73.4825 13.4354 73.1395C13.3254 72.7966 13.3269 72.4276 13.4398 72.0856L21.9698 46.4689L1.59313 29.5789C1.32955 29.352 1.14161 29.0499 1.05445 28.7132C0.967297 28.3765 0.985098 28.0212 1.10547 27.6949C1.22584 27.3686 1.44304 27.0868 1.72798 26.8874C2.01292 26.6879 2.35199 26.5803 2.6998 26.5789H27.0865L35.7265 2.10557Z" stroke="url(#paint0_linear_679_1962)" stroke-width="2" stroke-linecap="round" stroke-linejoin="round"/>
<defs>
<linearGradient id="paint0_linear_679_1962" x1="1" y1="1" x2="86.2358" y2="21.2301" gradientUnits="userSpaceOnUse">
<stop stop-color="#C0C0C0"/>
<stop offset="0.5" stop-color="#E8E8E8"/>
<stop offset="1" stop-color="#A9A9A9"/>
</linearGradient>
</defs>
</svg>
