<svg width="80" height="80" viewBox="0 0 80 80" fill="none" xmlns="http://www.w3.org/2000/svg">
<path d="M40 70C45.9334 70 51.7336 68.2405 56.6671 64.9441C61.6006 61.6477 65.4458 56.9623 67.7164 51.4805C69.987 45.9987 70.5811 39.9667 69.4236 34.1473C68.266 28.3279 65.4088 22.9824 61.2132 18.7868C57.0176 14.5912 51.6721 11.734 45.8527 10.5765C40.0333 9.4189 34.0013 10.013 28.5195 12.2836C23.0377 14.5543 18.3524 18.3994 15.0559 23.3329C11.7595 28.2664 10 34.0666 10 40C10 44.8 11.1267 49.3333 13.1333 53.3567C14.6433 56.3933 12.5433 60.49 11.7433 63.48C11.5661 64.1413 11.5661 64.8376 11.7432 65.4989C11.9204 66.1602 12.2686 66.7632 12.7527 67.2473C13.2368 67.7315 13.8398 68.0796 14.5011 68.2568C15.1624 68.4339 15.8587 68.4339 16.52 68.2567C19.51 67.4567 23.6067 65.3567 26.6433 66.87C30.794 68.931 35.3658 70.0023 40 70Z" fill="#A0C71B" stroke="url(#paint0_linear_635_2036)" stroke-width="2" stroke-linecap="round" stroke-linejoin="round"/>
<defs>
<linearGradient id="paint0_linear_635_2036" x1="10" y1="10" x2="80.3386" y2="26.8546" gradientUnits="userSpaceOnUse">
<stop stop-color="#C0C0C0"/>
<stop offset="0.5" stop-color="#E8E8E8"/>
<stop offset="1" stop-color="#A9A9A9"/>
</linearGradient>
</defs>
</svg>
