<svg width="52" height="72" viewBox="0 0 52 72" fill="none" xmlns="http://www.w3.org/2000/svg">
<path d="M35.2609 1.15625L1 43.5H21L16.0766 70.5672C16.0672 70.6203 16.0696 70.6748 16.0836 70.7269C16.0976 70.779 16.1228 70.8274 16.1575 70.8686C16.1922 70.9099 16.2356 70.943 16.2845 70.9657C16.3334 70.9884 16.3867 71.0001 16.4406 71C16.498 70.9999 16.5546 70.9865 16.6058 70.9607C16.6571 70.935 16.7017 70.8976 16.7359 70.8516L51 28.5H31L33.4734 14.9648L35.9469 1.42969C35.9535 1.37576 35.9486 1.32103 35.9325 1.26914C35.9164 1.21725 35.8894 1.16939 35.8533 1.12874C35.8172 1.0881 35.7729 1.05559 35.7233 1.0334C35.6737 1.0112 35.62 0.999815 35.5656 1C35.5061 1.00024 35.4475 1.01451 35.3946 1.04166C35.3416 1.06881 35.2958 1.10807 35.2609 1.15625Z" fill="#EF1010" stroke="url(#paint0_linear_635_2001)" stroke-width="2" stroke-linecap="round" stroke-linejoin="round"/>
<defs>
<linearGradient id="paint0_linear_635_2001" x1="1" y1="1" x2="61.217" y2="11.3066" gradientUnits="userSpaceOnUse">
<stop stop-color="#C0C0C0"/>
<stop offset="0.5" stop-color="#E8E8E8"/>
<stop offset="1" stop-color="#A9A9A9"/>
</linearGradient>
</defs>
</svg>
