<svg width="80" height="80" viewBox="0 0 80 80" fill="none" xmlns="http://www.w3.org/2000/svg">
<path d="M22.6357 32.0684V24.7968C22.6641 15.2134 30.4557 7.47009 40.0374 7.50009C49.5774 7.53009 57.3041 15.2568 57.3341 24.7968V32.0684" stroke="url(#paint0_linear_635_2018)" stroke-width="2" stroke-linecap="round" stroke-linejoin="round"/>
<path d="M16.934 32.0688H63.0673C63.4833 32.0686 63.8952 32.1504 64.2796 32.3094C64.664 32.4685 65.0133 32.7017 65.3075 32.9958C65.6018 33.2898 65.8352 33.639 65.9944 34.0233C66.1537 34.4076 66.2356 34.8195 66.2356 35.2355V69.3338C66.2356 70.1737 65.902 70.9792 65.3081 71.573C64.7143 72.1669 63.9088 72.5005 63.069 72.5005H16.934C16.518 72.5007 16.106 72.419 15.7216 72.2599C15.3372 72.1009 14.9879 71.8677 14.6937 71.5736C14.3995 71.2795 14.1661 70.9304 14.0068 70.5461C13.8476 70.1618 13.7656 69.7498 13.7656 69.3338V35.2372C13.7656 34.3973 14.0993 33.5919 14.6931 32.998C15.287 32.4041 16.0924 32.0705 16.9323 32.0705" fill="#FCB103"/>
<path d="M16.934 32.0688H63.0673C63.4833 32.0686 63.8952 32.1504 64.2796 32.3094C64.664 32.4685 65.0133 32.7017 65.3075 32.9958C65.6018 33.2898 65.8352 33.639 65.9944 34.0233C66.1537 34.4076 66.2356 34.8195 66.2356 35.2355V69.3338C66.2356 70.1737 65.902 70.9792 65.3081 71.573C64.7143 72.1669 63.9088 72.5005 63.069 72.5005H16.934C16.518 72.5007 16.106 72.419 15.7216 72.2599C15.3372 72.1009 14.9879 71.8677 14.6937 71.5736C14.3995 71.2795 14.1661 70.9304 14.0068 70.5461C13.8476 70.1618 13.7656 69.7498 13.7656 69.3338V35.2372C13.7656 34.3973 14.0993 33.5919 14.6931 32.998C15.287 32.4041 16.0924 32.0705 16.9323 32.0705" stroke="url(#paint1_linear_635_2018)" stroke-width="2" stroke-linecap="round" stroke-linejoin="round"/>
<defs>
<linearGradient id="paint0_linear_635_2018" x1="22.6357" y1="7.5" x2="61.2286" y2="20.5606" gradientUnits="userSpaceOnUse">
<stop stop-color="#C0C0C0"/>
<stop offset="0.5" stop-color="#E8E8E8"/>
<stop offset="1" stop-color="#A9A9A9"/>
</linearGradient>
<linearGradient id="paint1_linear_635_2018" x1="13.7656" y1="32.0688" x2="73.0734" y2="50.5116" gradientUnits="userSpaceOnUse">
<stop stop-color="#C0C0C0"/>
<stop offset="0.5" stop-color="#E8E8E8"/>
<stop offset="1" stop-color="#A9A9A9"/>
</linearGradient>
</defs>
</svg>
