<svg width="180" height="166" viewBox="0 0 180 166" fill="none" xmlns="http://www.w3.org/2000/svg">
<path d="M27.6978 63.1989C18.5057 71.6749 8.61051 90.0981 6.13672 94.1083L36.4472 105.175L43.2957 89.4992L35.7702 148.454L108.799 145.967L104.568 83.8095L106.482 86.1401L123.577 87.1947L114.268 69.162C108.799 61.8578 104.151 56.8191 90.376 54.6708L77.9159 52.7568L58.9458 53.3427C47.8788 54.0719 35.8483 55.439 27.6978 63.1989Z" fill="#3F2B04" stroke="#FBE70B" stroke-width="1.953" stroke-linecap="round" stroke-linejoin="round"/>
<path d="M112.556 199.883H76.5088L73.4365 180.629L71.5156 180.589L67.5859 200H28.9648L36.6924 149.705L36.8301 149.541L106.96 147.58L112.556 199.883Z" fill="#3F2B04" stroke="#FBE70B" stroke-width="1.953"/>
<path d="M136.062 58.0171C132.586 52.9784 132.312 48.7338 133.38 40.7005L135.58 25.5713C136.388 23.5141 139.994 23.0584 140.671 25.9749L141.075 22.9152L143.405 4.23156C143.809 2.0442 145.463 0.976562 147.65 0.976562L170.474 3.8019C172.935 4.20551 173.872 5.29919 173.872 8.12453L173.065 19.8685C174.146 18.7879 177.349 17.1604 178.286 19.8685C179.236 22.5767 176.411 26.7822 172.805 29.9851L174.849 31.7688C175.799 33.1099 176.073 35.818 173 37.8622C175.057 39.073 175.252 42.1327 172.336 44.0467L172.805 44.8539C173.469 47.0282 170.773 51.1165 167.571 51.6503L166.828 56.6891C165.891 59.0066 163.56 60.7903 160.631 60.3867L152.272 68.0295C149.212 86.7131 145.606 115.279 136.401 122.127C128.563 127.934 116.558 125.604 109.918 116.737L105.205 110.67L104.528 98.34L123.329 86.9865L136.062 58.0171Z" fill="#3F2B04" stroke="#FBE70B" stroke-width="1.953" stroke-linecap="round" stroke-linejoin="round"/>
<path d="M141.011 22.9154L152.078 40.1929L172.467 23.9961L173.131 8.33303C173.274 5.87225 171.933 4.08852 169.355 3.8151L149.995 1.36734C147.677 0.963721 144.604 1.23714 143.667 4.2057L141.011 22.9154Z" fill="#3F2B04"/>
<path d="M149.994 1.37988L151.491 5.33796C152.025 6.67902 153.626 7.53834 155.228 7.66854L164.094 8.33255C165.735 8.46275 167.063 7.35605 167.297 5.87178L167.688 4.4526L149.994 1.37988Z" fill="#FBE70B"/>
<path d="M138.536 48.8769L141.049 22.915" stroke="#FBE70B" stroke-width="1.953" stroke-linecap="round" stroke-linejoin="round"/>
<path d="M157.286 12.9683C151.961 12.9683 149.031 18.02 149.982 21.9781C150.919 25.9362 156.752 34.1648 156.752 34.1648C156.752 34.1648 164.134 24.1003 164.395 21.1839C164.929 16.8092 162.129 12.9683 157.286 12.9683ZM157.429 23.0587C155.242 23.0587 153.901 21.4443 153.901 19.4001C153.901 17.4862 155.515 15.8717 157.429 15.8717C159.473 15.8717 161.088 17.4862 161.088 19.4001C161.088 21.4443 159.473 23.0587 157.429 23.0587Z" fill="#3F2B04" stroke="#FBE70B" stroke-width="1.953" stroke-linecap="round" stroke-linejoin="round"/>
<path d="M7.47713 94.33C2.98523 104.499 -2.95188 121.125 4.56065 129.484C13.1669 139.249 28.0227 134.757 33.8296 132.713C47.2141 128.898 57.6952 121.516 68.2414 114.42C73.7228 115.097 77.8111 113.3 81.2744 109.824C82.993 110.761 85.3236 111.295 87.7713 109.824C92.5497 107.246 91.7424 101.869 90.805 96.4262C90.2581 93.2233 89.1905 92.4291 87.7062 92.2858L96.8983 89.3303C99.9711 88.1064 101.052 84.0442 98.8644 83.3672C97.3801 82.7682 85.1804 86.492 74.3868 89.7339C70.1553 91.075 67.2258 96.8949 63.3328 98.3662C55.625 101.035 42.5009 104.772 36.4466 106.621L24.5593 108.951" fill="#3F2B04"/>
<path d="M7.47713 94.33C2.98523 104.499 -2.95188 121.125 4.56065 129.484C13.1669 139.249 28.0227 134.757 33.8296 132.713C47.2141 128.898 57.6952 121.516 68.2414 114.42C73.7228 115.097 77.8111 113.3 81.2744 109.824C82.993 110.761 85.3236 111.295 87.7713 109.824C92.5497 107.246 91.7424 101.869 90.805 96.4262C90.2582 93.2233 89.1905 92.4291 87.7062 92.2858L96.8983 89.3303C99.9711 88.1064 101.052 84.0442 98.8644 83.3672C97.3801 82.7682 85.1804 86.492 74.3868 89.7339C70.1553 91.075 67.2258 96.8949 63.3328 98.3662C55.625 101.035 42.5009 104.772 36.4466 106.621L24.5593 108.951" stroke="#FBE70B" stroke-width="1.953" stroke-linecap="round" stroke-linejoin="round"/>
<path d="M123.304 87.0386L120.231 98.1967" stroke="#FBE70B" stroke-width="1.953" stroke-linecap="round" stroke-linejoin="round"/>
<path d="M58.9455 53.3429L75.6762 69.019L77.9156 52.6789L78.788 48.2651C85.5844 47.7313 87.9019 42.1327 86.8343 32.6151L85.0506 21.0534C89.1388 18.215 89.5425 12.2779 87.3551 8.67136C84.022 3.12485 77.2256 4.90858 75.572 6.82252C72.6556 9.14008 70.0646 9.4135 64.9868 9.4135C59.5184 10.0905 55.7686 12.5383 54.2974 17.577C50.0659 18.7879 48.5946 24.6729 50.1961 29.5814C51.9798 35.4144 55.8077 40.4792 58.8804 42.5363L58.9455 53.3429Z" fill="#3F2B04" stroke="#FBE70B" stroke-width="1.953" stroke-linecap="round" stroke-linejoin="round"/>
<path d="M85.0505 21.0533C81.9908 23.2407 79.0613 23.7875 74.8428 23.7875C71.1061 23.6443 67.2262 23.3839 66.6923 24.725V31.5735C66.6923 32.9145 64.7784 32.2505 63.2941 30.9095C61.5104 29.5684 58.5809 30.1022 58.3075 32.4328C57.7737 35.1279 59.6876 37.5887 62.3958 37.8621L61.3932 41.1041C61.3932 41.1041 56.9757 38.2771 55.2348 35.5446C52.5173 31.2794 52.178 27.6177 53.438 22.7199C54.5082 18.5597 56.1773 16.2753 59.4793 13.5278C61.7543 11.6348 63.3794 10.9648 66.1585 9.9473C70.0475 8.52351 72.5294 8.84044 76.6396 8.33282C79.0955 8.0295 80.6402 6.75846 82.9413 7.6688C85.3641 8.62731 86.4475 10.3315 87.1597 12.8377C88.0652 16.024 88.1102 18.866 85.0505 21.0533Z" fill="#FBE70B"/>
<path d="M67.6294 44.9971C70.0772 47.7052 73.3842 48.7859 77.9152 48.2521" stroke="#FBE70B" stroke-width="1.953" stroke-linecap="round" stroke-linejoin="round"/>
</svg>
