<svg width="80" height="80" viewBox="0 0 80 80" fill="none" xmlns="http://www.w3.org/2000/svg">
<path d="M49.4799 10.1175C50.4162 9.90235 51.3962 9.98402 52.284 10.3512C53.1717 10.7184 53.9231 11.3529 54.4338 12.1666L59.0315 19.5072C59.4022 20.0984 59.9019 20.5981 60.4931 20.9689L67.8337 25.5666C68.6492 26.0769 69.2852 26.8287 69.6533 27.7175C70.0214 28.6062 70.1032 29.5876 69.8874 30.525L67.9447 38.9619C67.788 39.6437 67.788 40.3522 67.9447 41.0341L69.8874 49.4755C70.1011 50.4116 70.0182 51.391 69.6503 52.2778C69.2823 53.1647 68.6474 53.915 67.8337 54.4248L60.4931 59.0271C59.9019 59.3978 59.4022 59.8975 59.0315 60.4887L54.4338 67.8293C53.9237 68.6439 53.1726 69.2793 52.2849 69.6474C51.3971 70.0154 50.4167 70.0978 49.4799 69.883L41.0385 67.9404C40.3581 67.7843 39.6513 67.7843 38.9709 67.9404L30.5294 69.883C29.5927 70.0978 28.6123 70.0154 27.7245 69.6474C26.8367 69.2793 26.0856 68.6439 25.5756 67.8293L20.9779 60.4887C20.6058 59.897 20.1045 59.3973 19.5116 59.0271L12.1756 54.4294C11.3611 53.9193 10.7256 53.1683 10.3576 52.2805C9.98955 51.3927 9.90718 50.4123 10.1219 49.4755L12.06 41.0341C12.2167 40.3522 12.2167 39.6437 12.06 38.9619L10.1173 30.525C9.90196 29.5871 9.98451 28.6054 10.3535 27.7166C10.7224 26.8278 11.3594 26.0762 12.1756 25.5666L19.5116 20.9689C20.1045 20.5987 20.6058 20.099 20.9779 19.5072L25.5756 12.1666C26.086 11.3538 26.8366 10.7199 27.7234 10.3527C28.6102 9.98558 29.5892 9.90338 30.5248 10.1175L38.9709 12.0556C39.6513 12.2116 40.3581 12.2116 41.0385 12.0556L49.4799 10.1175Z" fill="#1DCB02" stroke="url(#paint0_linear_635_2027)" stroke-width="2"/>
<path d="M28.5059 42.4774L37.9187 51.4924L51.4944 28.5039" fill="#1DCB02"/>
<path d="M28.5059 42.4774L37.9187 51.4924L51.4944 28.5039" stroke="url(#paint1_linear_635_2027)" stroke-width="2" stroke-linecap="round" stroke-linejoin="round"/>
<defs>
<linearGradient id="paint0_linear_635_2027" x1="10" y1="10" x2="80.3441" y2="26.8574" gradientUnits="userSpaceOnUse">
<stop stop-color="#C0C0C0"/>
<stop offset="0.5" stop-color="#E8E8E8"/>
<stop offset="1" stop-color="#A9A9A9"/>
</linearGradient>
<linearGradient id="paint1_linear_635_2027" x1="28.5059" y1="28.5039" x2="55.4555" y2="34.9616" gradientUnits="userSpaceOnUse">
<stop stop-color="#C0C0C0"/>
<stop offset="0.5" stop-color="#E8E8E8"/>
<stop offset="1" stop-color="#A9A9A9"/>
</linearGradient>
</defs>
</svg>
